<svg width="84" height="84" viewBox="0 0 84 84" fill="none" xmlns="http://www.w3.org/2000/svg">
<circle cx="42" cy="42" r="39" fill="white" stroke="black" stroke-width="6"/>
<path d="M43.1158 37.3359C41.6445 37.2719 40.3998 38.4128 40.3359 39.8842C40.2719 41.3555 41.4128 42.6002 42.8842 42.6641C44.3555 42.7281 45.6002 41.5872 45.6641 40.1158C45.7281 38.6445 44.5872 37.3998 43.1158 37.3359ZM42.5005 39.9783L41.5005 62.9783L42.4995 63.0217L43.4995 40.0217L42.5005 39.9783Z" fill="black"/>
<path d="M44.6547 62.7472C44.515 61.2811 43.2133 60.2057 41.7472 60.3453C40.2811 60.485 39.2057 61.7867 39.3453 63.2528C39.485 64.7189 40.7867 65.7943 42.2528 65.6547C43.7189 65.515 44.7943 64.2133 44.6547 62.7472ZM23.6547 64.7472C23.515 63.2811 22.2133 62.2057 20.7472 62.3453C19.2811 62.485 18.2057 63.7867 18.3453 65.2528C18.485 66.719 19.7867 67.7943 21.2528 67.6547C22.7189 67.515 23.7943 66.2133 23.6547 64.7472ZM41.9526 62.5023L20.9526 64.5023L21.0474 65.4977L42.0474 63.4977L41.9526 62.5023Z" fill="black"/>
<path d="M25.9848 25.2535C25.0203 26.3665 25.1406 28.0506 26.2535 29.0152C27.3665 29.9797 29.0506 29.8594 30.0152 28.7465C30.9797 27.6335 30.8594 25.9494 29.7465 24.9848C28.6335 24.0203 26.9494 24.1406 25.9848 25.2535ZM27.6725 27.3778L42.6725 40.3778L43.3275 39.6222L28.3275 26.6222L27.6725 27.3778Z" fill="black"/>
<path d="M11.1762 44.9454C12.2506 45.9527 13.9382 45.8983 14.9454 44.8238C15.9527 43.7494 15.8983 42.0618 14.8238 41.0546C13.7494 40.0473 12.0618 40.1017 11.0546 41.1762C10.0473 42.2506 10.1017 43.9382 11.1762 44.9454ZM13.3648 43.342L28.3648 27.342L27.6352 26.658L12.6352 42.658L13.3648 43.342Z" fill="black"/>
<path d="M63.9359 20.166C62.923 19.0969 61.2352 19.0512 60.166 20.0641C59.0969 21.077 59.0512 22.7648 60.0641 23.834C61.077 24.9031 62.7648 24.9488 63.834 23.9359C64.9031 22.923 64.9488 21.2352 63.9359 20.166ZM61.6561 21.637L42.6561 39.637L43.3439 40.363L62.3439 22.363L61.6561 21.637Z" fill="black"/>
<path d="M63.743 64.0182C64.8576 63.0556 64.9808 61.3716 64.0182 60.257C63.0556 59.1424 61.3716 59.0192 60.257 59.9818C59.1424 60.9444 59.0192 62.6284 59.9818 63.743C60.9444 64.8576 62.6284 64.9808 63.743 64.0182ZM62.3784 61.6732L43.3784 39.6732L42.6216 40.3268L61.6216 62.3268L62.3784 61.6732Z" fill="black"/>
<path d="M43.5439 12.3894C42.1021 12.089 40.6898 13.0143 40.3894 14.4561C40.089 15.8979 41.0144 17.3102 42.4562 17.6106C43.898 17.911 45.3103 16.9857 45.6106 15.5439C45.911 14.1021 44.9857 12.6898 43.5439 12.3894ZM42.5 15L42.5 40L43.5 40L43.5 15L42.5 15Z" fill="black"/>
<path d="M70.6046 50.867C71.1441 49.4966 70.4705 47.9483 69.1001 47.4088C67.7297 46.8694 66.1814 47.543 65.642 48.9133C65.1025 50.2837 65.7761 51.832 67.1465 52.3715C68.5169 52.9109 70.0651 52.2374 70.6046 50.867ZM68.3064 49.4249L43.183 39.5348L42.8167 40.4652L67.9401 50.3554L68.3064 49.4249Z" fill="black"/>
</svg>
